<svg width="46" height="46" viewBox="0 0 46 46" fill="none" xmlns="http://www.w3.org/2000/svg">
<path d="M31.7327 24.7366L30.8596 25.6044C30.8596 25.6044 28.7846 27.6677 23.1209 22.036C17.4572 16.4044 19.5321 14.3413 19.5321 14.3413L20.0818 13.7946C21.4361 12.4481 21.5638 10.2862 20.3822 8.708L17.9654 5.47957C16.503 3.52618 13.6772 3.26814 12.0011 4.93476L8.99267 7.92608C8.16156 8.75247 7.60462 9.82372 7.67216 11.0121C7.84495 14.0523 9.22048 20.5937 16.8961 28.2256C25.0356 36.319 32.673 36.6406 35.7962 36.3494C36.784 36.2574 37.6431 35.7543 38.3354 35.0659L41.0582 32.3587C42.8961 30.5312 42.3778 27.3982 40.0263 26.12L36.3645 24.1294C34.8204 23.29 32.9394 23.5365 31.7327 24.7366Z" fill="white"/>
</svg>
