<svg width="143" height="158" viewBox="0 0 143 158" fill="none" xmlns="http://www.w3.org/2000/svg">
<path fill-rule="evenodd" clip-rule="evenodd" d="M59.283 114.179C57.541 116.043 54.7667 115.999 53.0859 114.079L24.3936 81.3103C22.7128 79.3907 22.7624 76.3239 24.5045 74.4597L54.2419 42.6366C55.984 40.7724 58.7582 40.8173 60.439 42.7368C62.1198 44.6564 62.0702 47.7232 60.3282 49.5874L38.2058 73.262L86.0557 74.0362C90.2237 74.1037 96.5961 72.7841 101.844 68.7438C106.866 64.8781 111.149 58.3263 111.333 46.9866C111.376 44.3112 113.373 42.1739 115.793 42.2131C118.213 42.2523 120.14 44.453 120.097 47.1284C119.862 61.6253 114.146 71.0639 106.838 76.69C99.7567 82.1415 91.4694 83.8151 85.899 83.725L38.0491 82.9507L59.3938 107.328C61.0746 109.248 61.025 112.315 59.283 114.179Z" fill="#1C274C"/>
</svg>
